<svg width="84" height="16" viewBox="0 0 84 16" fill="none" xmlns="http://www.w3.org/2000/svg">
<path d="M4.10738 11.3393L12 11.3333M8.00005 2C9.27872 2 10.3467 2.9 10.6067 4.10067C10.9448 4.00918 11.2976 3.98517 11.6449 4.03002C11.9922 4.07487 12.3274 4.1877 12.6311 4.36205C12.9348 4.53641 13.2013 4.76889 13.4152 5.04621C13.629 5.32353 13.7862 5.64027 13.8777 5.97833C13.9692 6.3164 13.9932 6.66918 13.9484 7.01652C13.9035 7.36386 13.7907 7.69897 13.6163 8.00271C13.442 8.30645 13.2095 8.57288 12.9322 8.78677C12.6549 9.00067 12.3381 9.15785 12 9.24933V14H4.00005V9.24933C3.66198 9.15776 3.34526 9.00049 3.06798 8.78652C2.79069 8.57254 2.55826 8.30604 2.38396 8.00224C2.20967 7.69844 2.09692 7.36328 2.05215 7.0159C2.00738 6.66853 2.03147 6.31573 2.12305 5.97767C2.21462 5.6396 2.37189 5.32288 2.58587 5.04559C2.79984 4.76831 3.06634 4.53588 3.37014 4.36158C3.67394 4.18729 4.0091 4.07454 4.35648 4.02977C4.70386 3.985 5.05665 4.00909 5.39472 4.10067C5.52394 3.50571 5.85286 2.97289 6.32681 2.59074C6.80077 2.20859 7.39122 2.00013 8.00005 2Z" stroke="#FF7C38" stroke-width="1.5" stroke-linecap="round" stroke-linejoin="round"/>
<path d="M21.1074 11.3393L29 11.3333M25 2C26.2787 2 27.3467 2.9 27.6067 4.10067C27.9448 4.00918 28.2976 3.98517 28.6449 4.03002C28.9922 4.07487 29.3274 4.1877 29.6311 4.36205C29.9348 4.53641 30.2013 4.76889 30.4152 5.04621C30.629 5.32353 30.7862 5.64027 30.8777 5.97833C30.9692 6.3164 30.9932 6.66918 30.9484 7.01652C30.9035 7.36386 30.7907 7.69897 30.6163 8.00271C30.442 8.30645 30.2095 8.57288 29.9322 8.78677C29.6549 9.00067 29.3381 9.15785 29 9.24933V14H21V9.24933C20.662 9.15776 20.3453 9.00049 20.068 8.78652C19.7907 8.57254 19.5583 8.30604 19.384 8.00224C19.2097 7.69844 19.0969 7.36328 19.0521 7.0159C19.0074 6.66853 19.0315 6.31573 19.123 5.97767C19.2146 5.6396 19.3719 5.32288 19.5859 5.04559C19.7998 4.76831 20.0663 4.53588 20.3701 4.36158C20.6739 4.18729 21.0091 4.07454 21.3565 4.02977C21.7039 3.985 22.0566 4.00909 22.3947 4.10067C22.5239 3.50571 22.8529 2.97289 23.3268 2.59074C23.8008 2.20859 24.3912 2.00013 25 2Z" stroke="#FF7C38" stroke-width="1.5" stroke-linecap="round" stroke-linejoin="round"/>
<path d="M38.1074 11.3393L46 11.3333M42 2C43.2787 2 44.3467 2.9 44.6067 4.10067C44.9448 4.00918 45.2976 3.98517 45.6449 4.03002C45.9922 4.07487 46.3274 4.1877 46.6311 4.36205C46.9348 4.53641 47.2013 4.76889 47.4152 5.04621C47.629 5.32353 47.7862 5.64027 47.8777 5.97833C47.9692 6.3164 47.9932 6.66918 47.9484 7.01652C47.9035 7.36386 47.7907 7.69897 47.6163 8.00271C47.442 8.30645 47.2095 8.57288 46.9322 8.78677C46.6549 9.00067 46.3381 9.15785 46 9.24933V14H38V9.24933C37.662 9.15776 37.3453 9.00049 37.068 8.78652C36.7907 8.57254 36.5583 8.30604 36.384 8.00224C36.2097 7.69844 36.0969 7.36328 36.0521 7.0159C36.0074 6.66853 36.0315 6.31573 36.123 5.97767C36.2146 5.6396 36.3719 5.32288 36.5859 5.04559C36.7998 4.76831 37.0663 4.53588 37.3701 4.36158C37.6739 4.18729 38.0091 4.07454 38.3565 4.02977C38.7039 3.985 39.0566 4.00909 39.3947 4.10067C39.5239 3.50571 39.8529 2.97289 40.3268 2.59074C40.8008 2.20859 41.3912 2.00013 42 2Z" stroke="#FF7C38" stroke-width="1.5" stroke-linecap="round" stroke-linejoin="round"/>
<path d="M55.1074 11.3393L63 11.3333M59 2C60.2787 2 61.3467 2.9 61.6067 4.10067C61.9448 4.00918 62.2976 3.98517 62.6449 4.03002C62.9922 4.07487 63.3274 4.1877 63.6311 4.36205C63.9348 4.53641 64.2013 4.76889 64.4152 5.04621C64.629 5.32353 64.7862 5.64027 64.8777 5.97833C64.9692 6.3164 64.9932 6.66918 64.9484 7.01652C64.9035 7.36386 64.7907 7.69897 64.6163 8.00271C64.442 8.30645 64.2095 8.57288 63.9322 8.78677C63.6549 9.00067 63.3381 9.15785 63 9.24933V14H55V9.24933C54.662 9.15776 54.3453 9.00049 54.068 8.78652C53.7907 8.57254 53.5583 8.30604 53.384 8.00224C53.2097 7.69844 53.0969 7.36328 53.0521 7.0159C53.0074 6.66853 53.0315 6.31573 53.123 5.97767C53.2146 5.6396 53.3719 5.32288 53.5859 5.04559C53.7998 4.76831 54.0663 4.53588 54.3701 4.36158C54.6739 4.18729 55.0091 4.07454 55.3565 4.02977C55.7039 3.985 56.0566 4.00909 56.3947 4.10067C56.5239 3.50571 56.8529 2.97289 57.3268 2.59074C57.8008 2.20859 58.3912 2.00013 59 2Z" stroke="#FF7C38" stroke-width="1.5" stroke-linecap="round" stroke-linejoin="round"/>
<path d="M72.1074 11.3393L80 11.3333M76 2C77.2787 2 78.3467 2.9 78.6067 4.10067C78.9448 4.00918 79.2976 3.98517 79.6449 4.03002C79.9922 4.07487 80.3274 4.1877 80.6311 4.36205C80.9348 4.53641 81.2013 4.76889 81.4152 5.04621C81.629 5.32353 81.7862 5.64027 81.8777 5.97833C81.9692 6.3164 81.9932 6.66918 81.9484 7.01652C81.9035 7.36386 81.7907 7.69897 81.6163 8.00271C81.442 8.30645 81.2095 8.57288 80.9322 8.78677C80.6549 9.00067 80.3381 9.15785 80 9.24933V14H72V9.24933C71.662 9.15776 71.3453 9.00049 71.068 8.78652C70.7907 8.57254 70.5583 8.30604 70.384 8.00224C70.2097 7.69844 70.0969 7.36328 70.0521 7.0159C70.0074 6.66853 70.0315 6.31573 70.123 5.97767C70.2146 5.6396 70.3719 5.32288 70.5859 5.04559C70.7998 4.76831 71.0663 4.53588 71.3701 4.36158C71.6739 4.18729 72.0091 4.07454 72.3565 4.02977C72.7039 3.985 73.0566 4.00909 73.3947 4.10067C73.5239 3.50571 73.8529 2.97289 74.3268 2.59074C74.8008 2.20859 75.3912 2.00013 76 2Z" stroke="#FFF6CE" stroke-width="1.5" stroke-linecap="round" stroke-linejoin="round"/>
</svg>
