<svg width="54" height="10" viewBox="0 0 54 10" fill="none" xmlns="http://www.w3.org/2000/svg">
<g clip-path="url(#clip0_379_12)">
<path d="M2.56699 7.08708L7.49991 7.08333M4.99991 1.25C5.79908 1.25 6.46657 1.8125 6.62907 2.56292C6.84037 2.50574 7.06085 2.49073 7.27794 2.51876C7.49503 2.5468 7.70447 2.61731 7.89431 2.72628C8.08415 2.83526 8.25066 2.98055 8.38435 3.15388C8.51803 3.32721 8.61627 3.52517 8.67345 3.73646C8.73063 3.94775 8.74563 4.16823 8.7176 4.38532C8.68957 4.60241 8.61906 4.81186 8.51008 5.00169C8.40111 5.19153 8.25581 5.35805 8.08249 5.49173C7.90916 5.62542 7.7112 5.72365 7.49991 5.78083V8.75H2.49991V5.78083C2.28862 5.7236 2.09067 5.62531 1.91736 5.49157C1.74406 5.35784 1.59879 5.19128 1.48986 5.0014C1.38092 4.81152 1.31045 4.60205 1.28247 4.38494C1.25449 4.16783 1.26955 3.94733 1.32678 3.73604C1.38402 3.52475 1.48231 3.3268 1.61604 3.1535C1.74978 2.98019 1.91634 2.83492 2.10622 2.72599C2.29609 2.61705 2.50557 2.54659 2.72268 2.51861C2.93979 2.49063 3.16028 2.50568 3.37157 2.56292C3.45234 2.19107 3.65791 1.85805 3.95414 1.61921C4.25036 1.38037 4.61939 1.25008 4.99991 1.25Z" stroke="#FF7C38" stroke-linecap="round" stroke-linejoin="round"/>
</g>
<g clip-path="url(#clip1_379_12)">
<path d="M13.567 7.08708L18.4999 7.08333M15.9999 1.25C16.7991 1.25 17.4666 1.8125 17.6291 2.56292C17.8404 2.50574 18.0609 2.49073 18.2779 2.51876C18.495 2.5468 18.7045 2.61731 18.8943 2.72628C19.0841 2.83526 19.2507 2.98055 19.3843 3.15388C19.518 3.32721 19.6163 3.52517 19.6735 3.73646C19.7306 3.94775 19.7456 4.16823 19.7176 4.38532C19.6896 4.60241 19.6191 4.81186 19.5101 5.00169C19.4011 5.19153 19.2558 5.35805 19.0825 5.49173C18.9092 5.62542 18.7112 5.72365 18.4999 5.78083V8.75H13.4999V5.78083C13.2886 5.7236 13.0907 5.62531 12.9174 5.49157C12.7441 5.35784 12.5988 5.19128 12.4899 5.0014C12.3809 4.81152 12.3105 4.60205 12.2825 4.38494C12.2545 4.16783 12.2695 3.94733 12.3268 3.73604C12.384 3.52475 12.4823 3.3268 12.616 3.1535C12.7498 2.98019 12.9163 2.83492 13.1062 2.72599C13.2961 2.61705 13.5056 2.54659 13.7227 2.51861C13.9398 2.49063 14.1603 2.50568 14.3716 2.56292C14.4523 2.19107 14.6579 1.85805 14.9541 1.61921C15.2504 1.38037 15.6194 1.25008 15.9999 1.25Z" stroke="#FF7C38" stroke-linecap="round" stroke-linejoin="round"/>
</g>
<g clip-path="url(#clip2_379_12)">
<path d="M24.567 7.08708L29.4999 7.08333M26.9999 1.25C27.7991 1.25 28.4666 1.8125 28.6291 2.56292C28.8404 2.50574 29.0609 2.49073 29.2779 2.51876C29.495 2.5468 29.7045 2.61731 29.8943 2.72628C30.0841 2.83526 30.2507 2.98055 30.3843 3.15388C30.518 3.32721 30.6163 3.52517 30.6735 3.73646C30.7306 3.94775 30.7456 4.16823 30.7176 4.38532C30.6896 4.60241 30.6191 4.81186 30.5101 5.00169C30.4011 5.19153 30.2558 5.35805 30.0825 5.49173C29.9092 5.62542 29.7112 5.72365 29.4999 5.78083V8.75H24.4999V5.78083C24.2886 5.7236 24.0907 5.62531 23.9174 5.49157C23.7441 5.35784 23.5988 5.19128 23.4899 5.0014C23.3809 4.81152 23.3105 4.60205 23.2825 4.38494C23.2545 4.16783 23.2695 3.94733 23.3268 3.73604C23.384 3.52475 23.4823 3.3268 23.616 3.1535C23.7498 2.98019 23.9163 2.83492 24.1062 2.72599C24.2961 2.61705 24.5056 2.54659 24.7227 2.51861C24.9398 2.49063 25.1603 2.50568 25.3716 2.56292C25.4523 2.19107 25.6579 1.85805 25.9541 1.61921C26.2504 1.38037 26.6194 1.25008 26.9999 1.25Z" stroke="#FF7C38" stroke-linecap="round" stroke-linejoin="round"/>
</g>
<g clip-path="url(#clip3_379_12)">
<path d="M35.567 7.08708L40.4999 7.08333M37.9999 1.25C38.7991 1.25 39.4666 1.8125 39.6291 2.56292C39.8404 2.50574 40.0609 2.49073 40.2779 2.51876C40.495 2.5468 40.7045 2.61731 40.8943 2.72628C41.0841 2.83526 41.2507 2.98055 41.3843 3.15388C41.518 3.32721 41.6163 3.52517 41.6735 3.73646C41.7306 3.94775 41.7456 4.16823 41.7176 4.38532C41.6896 4.60241 41.6191 4.81186 41.5101 5.00169C41.4011 5.19153 41.2558 5.35805 41.0825 5.49173C40.9092 5.62542 40.7112 5.72365 40.4999 5.78083V8.75H35.4999V5.78083C35.2886 5.7236 35.0907 5.62531 34.9174 5.49157C34.7441 5.35784 34.5988 5.19128 34.4899 5.0014C34.3809 4.81152 34.3105 4.60205 34.2825 4.38494C34.2545 4.16783 34.2695 3.94733 34.3268 3.73604C34.384 3.52475 34.4823 3.3268 34.616 3.1535C34.7498 2.98019 34.9163 2.83492 35.1062 2.72599C35.2961 2.61705 35.5056 2.54659 35.7227 2.51861C35.9398 2.49063 36.1603 2.50568 36.3716 2.56292C36.4523 2.19107 36.6579 1.85805 36.9541 1.61921C37.2504 1.38037 37.6194 1.25008 37.9999 1.25Z" stroke="#FF7C38" stroke-linecap="round" stroke-linejoin="round"/>
</g>
<g clip-path="url(#clip4_379_12)">
<path d="M46.567 7.08708L51.4999 7.08333M48.9999 1.25C49.7991 1.25 50.4666 1.8125 50.6291 2.56292C50.8404 2.50574 51.0609 2.49073 51.2779 2.51876C51.495 2.5468 51.7045 2.61731 51.8943 2.72628C52.0841 2.83526 52.2507 2.98055 52.3843 3.15388C52.518 3.32721 52.6163 3.52517 52.6735 3.73646C52.7306 3.94775 52.7456 4.16823 52.7176 4.38532C52.6896 4.60241 52.6191 4.81186 52.5101 5.00169C52.4011 5.19153 52.2558 5.35805 52.0825 5.49173C51.9092 5.62542 51.7112 5.72365 51.4999 5.78083V8.75H46.4999V5.78083C46.2886 5.7236 46.0907 5.62531 45.9174 5.49157C45.7441 5.35784 45.5988 5.19128 45.4899 5.0014C45.3809 4.81152 45.3105 4.60205 45.2825 4.38494C45.2545 4.16783 45.2695 3.94733 45.3268 3.73604C45.384 3.52475 45.4823 3.3268 45.616 3.1535C45.7498 2.98019 45.9163 2.83492 46.1062 2.72599C46.2961 2.61705 46.5056 2.54659 46.7227 2.51861C46.9398 2.49063 47.1603 2.50568 47.3716 2.56292C47.4523 2.19107 47.6579 1.85805 47.9541 1.61921C48.2504 1.38037 48.6194 1.25008 48.9999 1.25Z" stroke="#FF7C38" stroke-linecap="round" stroke-linejoin="round"/>
</g>
<defs>
<clipPath id="clip0_379_12">
<rect width="10" height="10" fill="white"/>
</clipPath>
<clipPath id="clip1_379_12">
<rect width="10" height="10" fill="white" transform="translate(11)"/>
</clipPath>
<clipPath id="clip2_379_12">
<rect width="10" height="10" fill="white" transform="translate(22)"/>
</clipPath>
<clipPath id="clip3_379_12">
<rect width="10" height="10" fill="white" transform="translate(33)"/>
</clipPath>
<clipPath id="clip4_379_12">
<rect width="10" height="10" fill="white" transform="translate(44)"/>
</clipPath>
</defs>
</svg>
