<svg width="30" height="30" viewBox="0 0 30 30" fill="none" xmlns="http://www.w3.org/2000/svg">
<path d="M20.0757 26.9325C20.4272 26.5809 20.6246 26.104 20.6246 25.6068C20.6246 25.1097 20.4272 24.6328 20.0757 24.2812L10.7944 15L20.0757 5.71872C20.4172 5.36509 20.6062 4.89146 20.6019 4.39984C20.5976 3.90823 20.4005 3.43795 20.0528 3.09031C19.7052 2.74267 19.2349 2.54548 18.7433 2.54121C18.2517 2.53694 17.778 2.72593 17.4244 3.06747L6.81753 13.6743C6.46602 14.026 6.26855 14.5028 6.26855 15C6.26855 15.4972 6.46602 15.974 6.81753 16.3256L17.4244 26.9325C17.776 27.284 18.2528 27.4814 18.75 27.4814C19.2472 27.4814 19.724 27.284 20.0757 26.9325Z" fill="#1E1E1E"/>
</svg>
