<svg width="20" height="20" viewBox="0 0 20 20" fill="none" xmlns="http://www.w3.org/2000/svg">
<path d="M3.07254 9.39421C2.99299 9.31902 2.8994 9.26025 2.79712 9.22124C2.69485 9.18222 2.58589 9.16374 2.47647 9.16683C2.36706 9.16993 2.25932 9.19454 2.15941 9.23928C2.05951 9.28401 1.96939 9.34798 1.89421 9.42754C1.81903 9.5071 1.76025 9.60069 1.72124 9.70296C1.68223 9.80524 1.66374 9.91419 1.66684 10.0236C1.66993 10.133 1.69455 10.2408 1.73928 10.3407C1.78401 10.4406 1.84799 10.5307 1.92754 10.6059L9.42754 17.6892C9.58227 17.8355 9.78712 17.917 10 17.917C10.213 17.917 10.4178 17.8355 10.5725 17.6892L18.0734 10.6059C18.1547 10.5312 18.2203 10.4411 18.2665 10.3408C18.3127 10.2405 18.3385 10.1321 18.3424 10.0218C18.3463 9.91144 18.3283 9.80143 18.2894 9.69813C18.2504 9.59484 18.1913 9.50031 18.1155 9.42004C18.0397 9.33977 17.9487 9.27537 17.8478 9.23056C17.7469 9.18576 17.6381 9.16145 17.5278 9.15904C17.4174 9.15664 17.3076 9.17619 17.2049 9.21656C17.1021 9.25693 17.0084 9.31732 16.9292 9.39421L10 15.9375L3.07254 9.39421Z" fill="black"/>
</svg>
