<svg width="20" height="20" viewBox="0 0 20 21" fill="none" xmlns="http://www.w3.org/2000/svg">
<path d="M9.39421 17.4275C9.31902 17.507 9.26025 17.6006 9.22124 17.7029C9.18222 17.8052 9.16374 17.9141 9.16683 18.0235C9.16993 18.1329 9.19454 18.2407 9.23928 18.3406C9.28401 18.4405 9.34798 18.5306 9.42754 18.6058C9.5071 18.681 9.60069 18.7397 9.70296 18.7788C9.80524 18.8178 9.91419 18.8363 10.0236 18.8332C10.133 18.8301 10.2408 18.8055 10.3407 18.7607C10.4406 18.716 10.5307 18.652 10.6059 18.5725L17.6892 11.0725C17.8355 10.9177 17.917 10.7129 17.917 10.5C17.917 10.287 17.8355 10.0822 17.6892 9.92745L10.6059 2.42662C10.5312 2.34532 10.4411 2.27967 10.3408 2.23348C10.2405 2.18729 10.1321 2.16149 10.0218 2.15757C9.91144 2.15365 9.80143 2.17169 9.69813 2.21065C9.59484 2.2496 9.50031 2.30869 9.42004 2.38449C9.33978 2.46029 9.27537 2.55127 9.23056 2.65217C9.18576 2.75307 9.16145 2.86186 9.15904 2.97224C9.15664 3.08261 9.17619 3.19236 9.21656 3.29511C9.25693 3.39786 9.31732 3.49157 9.39421 3.57079L15.9375 10.5L9.39421 17.4275Z" fill="black"/>
</svg>
