<svg width="64" height="21" viewBox="0 0 64 21" fill="none" xmlns="http://www.w3.org/2000/svg">
<g clip-path="url(#clip0_629_5758)">
<path d="M62.0067 12.8342L63.7822 14.0178C63.206 14.8666 61.8277 16.3228 59.4449 16.3228C56.4859 16.3228 54.2822 14.0334 54.2822 11.1211C54.2822 8.02193 56.5092 5.91943 59.1957 5.91943C61.8977 5.91943 63.2215 8.06856 63.6498 9.22881L63.8835 9.82068L56.922 12.7018C57.4515 13.7453 58.277 14.2748 59.4449 14.2748C60.613 14.2748 61.4227 13.6986 62.0067 12.8342ZM56.5482 10.9577L61.197 9.02643C60.94 8.38018 60.177 7.92081 59.2657 7.92081C58.1056 7.92081 56.4937 8.94868 56.5482 10.9577Z" fill="#FF302F"/>
<path d="M50.9258 0.616211H53.1683V15.8475H50.9258V0.616211Z" fill="#20B15A"/>
<path d="M47.3905 6.32425H49.5553V15.5751C49.5553 19.414 47.2893 20.9947 44.6105 20.9947C42.0876 20.9947 40.5693 19.2972 40.0008 17.919L41.9864 17.0935C42.3445 17.9422 43.2089 18.9469 44.6105 18.9469C46.3314 18.9469 47.3905 17.88 47.3905 15.8866V15.1391H47.3126C46.7986 15.762 45.8175 16.3226 44.5716 16.3226C41.9708 16.3226 39.5879 14.0566 39.5879 11.1366C39.5879 8.20087 41.9708 5.91162 44.5716 5.91162C45.8098 5.91162 46.7986 6.4645 47.3126 7.07187H47.3905V6.32425ZM47.5461 11.1366C47.5461 9.29887 46.3236 7.9595 44.7663 7.9595C43.1933 7.9595 41.8695 9.29887 41.8695 11.1366C41.8695 12.9509 43.1933 14.2669 44.7663 14.2669C46.3238 14.2747 47.5463 12.9509 47.5463 11.1366" fill="#3686F7"/>
<path d="M27.2768 11.0976C27.2768 14.0956 24.9408 16.2992 22.0752 16.2992C19.2097 16.2992 16.8735 14.0878 16.8735 11.0976C16.8735 8.08406 19.2097 5.88818 22.0752 5.88818C24.9408 5.88818 27.2768 8.08406 27.2768 11.0976ZM25.003 11.0976C25.003 9.22881 23.648 7.94381 22.0752 7.94381C20.5023 7.94381 19.1473 9.22881 19.1473 11.0976C19.1473 12.9508 20.5023 14.2513 22.0752 14.2513C23.6482 14.2513 25.003 12.9508 25.003 11.0976Z" fill="#FF302F"/>
<path d="M38.6381 11.1211C38.6381 14.1191 36.302 16.3227 33.4365 16.3227C30.5709 16.3227 28.2349 14.1189 28.2349 11.1211C28.2349 8.10756 30.5709 5.91943 33.4365 5.91943C36.302 5.91943 38.6381 8.09981 38.6381 11.1211ZM36.3565 11.1211C36.3565 9.25231 35.0016 7.96731 33.4286 7.96731C31.8556 7.96731 30.5007 9.25231 30.5007 11.1211C30.5007 12.9743 31.8557 14.2748 33.4286 14.2748C35.0094 14.2748 36.3565 12.9666 36.3565 11.1211Z" fill="#FFBA40"/>
<path d="M8.32352 14.041C5.06077 14.041 2.50677 11.409 2.50677 8.14623C2.50677 4.8836 5.06077 2.2516 8.32352 2.2516C10.0834 2.2516 11.3681 2.9446 12.3181 3.83235L13.8834 2.26723C12.5596 0.997977 10.792 0.0322266 8.32352 0.0322266C3.8539 0.0323516 0.0927734 3.67673 0.0927734 8.14623C0.0927734 12.6157 3.8539 16.2602 8.32352 16.2602C10.7375 16.2602 12.5596 15.466 13.9846 13.9865C15.4485 12.5225 15.9001 10.4667 15.9001 8.80035C15.9001 8.2786 15.8379 7.74135 15.7678 7.34423H8.32352V9.50898H13.6264C13.4706 10.864 13.0424 11.7906 12.4116 12.4212C11.6485 13.1922 10.4416 14.041 8.32352 14.041Z" fill="#3686F7"/>
</g>
<defs>
<clipPath id="clip0_629_5758">
<rect width="64" height="21" fill="white"/>
</clipPath>
</defs>
</svg>
