<svg width="38" height="38" viewBox="0 0 38 38" fill="none" xmlns="http://www.w3.org/2000/svg">
<path d="M29.0764 7.34026C31.6926 9.95613 33.1889 13.4869 33.2489 17.1861C33.3089 20.8852 31.9278 24.4627 29.3978 27.162L29.0764 27.4945L22.3583 34.211C21.5059 35.0629 20.3616 35.5589 19.1571 35.5986C17.9526 35.6383 16.7781 35.2187 15.8714 34.4248L15.6434 34.211L8.92375 27.4929C6.25134 24.8205 4.75 21.1959 4.75 17.4166C4.75 13.6372 6.25134 10.0127 8.92375 7.34026C11.5962 4.66785 15.2207 3.1665 19.0001 3.1665C22.7794 3.1665 26.404 4.66785 29.0764 7.34026ZM19.0001 12.6666C18.3763 12.6666 17.7586 12.7895 17.1823 13.0282C16.606 13.2669 16.0824 13.6168 15.6413 14.0578C15.2003 14.4989 14.8504 15.0225 14.6117 15.5988C14.3729 16.1751 14.2501 16.7928 14.2501 17.4166C14.2501 18.0404 14.3729 18.658 14.6117 19.2343C14.8504 19.8106 15.2003 20.3343 15.6413 20.7754C16.0824 21.2164 16.606 21.5663 17.1823 21.805C17.7586 22.0437 18.3763 22.1666 19.0001 22.1666C20.2599 22.1666 21.468 21.6661 22.3588 20.7754C23.2496 19.8846 23.7501 18.6764 23.7501 17.4166C23.7501 16.1568 23.2496 14.9486 22.3588 14.0578C21.468 13.167 20.2599 12.6666 19.0001 12.6666Z" fill="#FDD835"/>
</svg>
