<svg width="22" height="24" viewBox="0 0 22 24" fill="none" xmlns="http://www.w3.org/2000/svg">
<path d="M4.58333 11C5.06956 11 5.53588 11.2107 5.8797 11.5858C6.22351 11.9609 6.41667 12.4696 6.41667 13V15H15.5833V13C15.5833 12.4696 15.7765 11.9609 16.1203 11.5858C16.4641 11.2107 16.9304 11 17.4167 11C17.9029 11 18.3692 11.2107 18.713 11.5858C19.0568 11.9609 19.25 12.4696 19.25 13V17C19.25 17.5304 19.0568 18.0391 18.713 18.4142C18.3692 18.7893 17.9029 19 17.4167 19H4.58333C4.0971 19 3.63079 18.7893 3.28697 18.4142C2.94315 18.0391 2.75 17.5304 2.75 17V13C2.75 12.4696 2.94315 11.9609 3.28697 11.5858C3.63079 11.2107 4.0971 11 4.58333 11Z" stroke="#1E1E1E" stroke-width="2" stroke-linecap="round" stroke-linejoin="round"/>
<path d="M4.58337 11V6C4.58337 5.20435 4.87311 4.44129 5.38883 3.87868C5.90456 3.31607 6.60403 3 7.33337 3H14.6667C15.3961 3 16.0955 3.31607 16.6113 3.87868C17.127 4.44129 17.4167 5.20435 17.4167 6V11M5.50004 19V21M16.5 19V21" stroke="#1E1E1E" stroke-width="2" stroke-linecap="round" stroke-linejoin="round"/>
</svg>
