<svg width="16" height="16" viewBox="0 0 16 16" fill="none" xmlns="http://www.w3.org/2000/svg">
<path d="M5.99992 2C6.11944 1.99997 6.23677 2.03207 6.33963 2.09294C6.44249 2.15381 6.5271 2.24121 6.58459 2.346L6.61859 2.41933L7.95192 5.75267C8.00562 5.88677 8.01431 6.03469 7.97667 6.17416C7.93904 6.31364 7.85712 6.43711 7.74325 6.526L7.67659 6.57133L6.56059 7.24067L6.60259 7.30933C7.13376 8.15266 7.84726 8.86616 8.69059 9.39733L8.75858 9.43867L9.42859 8.324C9.50284 8.20006 9.61534 8.10359 9.74917 8.04912C9.88299 7.99465 10.0309 7.98513 10.1706 8.022L10.2473 8.048L13.5806 9.38133C13.6916 9.42561 13.7886 9.49891 13.8616 9.59356C13.9345 9.68821 13.9807 9.80072 13.9953 9.91933L13.9999 10V12.6667C13.9999 13.7713 13.1046 14.6667 11.9599 14.6653C6.24059 14.318 1.68125 9.75867 1.33325 4C1.33322 3.48986 1.52814 2.99899 1.87811 2.62783C2.22808 2.25666 2.70666 2.03326 3.21592 2.00333L3.33325 2H5.99992Z" fill="#FDD835"/>
</svg>
