<svg width="31" height="31" viewBox="0 0 31 31" fill="none" xmlns="http://www.w3.org/2000/svg">
<path d="M21.7517 15.0221C22.2691 15.0285 22.7825 14.9312 23.2617 14.736C23.7409 14.5408 24.1761 14.2516 24.5417 13.8854L28.1971 10.23C28.4377 9.988 28.5727 9.66062 28.5727 9.31938C28.5727 8.97814 28.4377 8.65077 28.1971 8.40876C28.0771 8.28769 27.9342 8.1916 27.7768 8.12602C27.6194 8.06045 27.4506 8.02669 27.28 8.02669C27.1095 8.02669 26.9407 8.06045 26.7833 8.12602C26.6259 8.1916 26.483 8.28769 26.363 8.40876L22.6688 12.0513C22.5487 12.1723 22.4059 12.2684 22.2485 12.334C22.0911 12.3996 21.9222 12.4333 21.7517 12.4333C21.5812 12.4333 21.4124 12.3996 21.255 12.334C21.0976 12.2684 20.9547 12.1723 20.8346 12.0513L25.4071 7.49168C25.5276 7.37124 25.6231 7.22827 25.6883 7.07091C25.7534 6.91356 25.787 6.74491 25.787 6.57459C25.787 6.40427 25.7534 6.23562 25.6883 6.07827C25.6231 5.92092 25.5276 5.77794 25.4071 5.65751C25.2867 5.53708 25.1437 5.44154 24.9864 5.37636C24.829 5.31119 24.6604 5.27764 24.49 5.27764C24.3197 5.27764 24.1511 5.31119 23.9937 5.37636C23.8364 5.44154 23.6934 5.53708 23.573 5.65751L19.0134 10.23C18.7728 9.988 18.6378 9.66062 18.6378 9.31938C18.6378 8.97814 18.7728 8.65077 19.0134 8.40876L22.6688 4.75334C22.7892 4.63291 22.8848 4.48993 22.9499 4.33258C23.0151 4.17523 23.0487 4.00658 23.0487 3.83626C23.0487 3.66594 23.0151 3.49729 22.9499 3.33994C22.8848 3.18258 22.7892 3.03961 22.6688 2.91918C22.5484 2.79874 22.4054 2.70321 22.248 2.63803C22.0907 2.57285 21.922 2.53931 21.7517 2.53931C21.5814 2.53931 21.4127 2.57285 21.2554 2.63803C21.098 2.70321 20.9551 2.79874 20.8346 2.91918L17.1792 6.57459C16.4536 7.30116 16.046 8.28605 16.046 9.31293C16.046 10.3398 16.4536 11.3247 17.1792 12.0513L15.5 13.7175L4.81796 2.99668L4.6888 2.91918C4.62287 2.86142 4.54891 2.81356 4.46921 2.77709L4.23671 2.68668L4.08171 2.58334H3.73296C3.6559 2.57165 3.57752 2.57165 3.50046 2.58334C3.42227 2.6118 3.34837 2.65092 3.28088 2.69959L3.07421 2.82876H2.98379L2.90629 2.95793C2.85163 3.02612 2.80402 3.0997 2.76421 3.17751C2.72585 3.25604 2.69555 3.33827 2.67379 3.42293C2.67379 3.42293 2.67379 3.51334 2.67379 3.56501C2.36035 5.74975 2.56019 7.97747 3.25747 10.0715C3.95475 12.1656 5.13028 14.0684 6.69088 15.6292L10.1009 19.0263L3.11296 26.0013C2.9919 26.1213 2.8958 26.2642 2.83023 26.4216C2.76465 26.579 2.73089 26.7478 2.73089 26.9183C2.73089 27.0889 2.76465 27.2577 2.83023 27.4151C2.8958 27.5725 2.9919 27.7153 3.11296 27.8354C3.23366 27.9551 3.37679 28.0499 3.53417 28.1141C3.69154 28.1784 3.86005 28.211 4.03004 28.21C4.20004 28.211 4.36855 28.1784 4.52592 28.1141C4.6833 28.0499 4.82643 27.9551 4.94713 27.8354L12.7875 20.1113L16.443 16.4558L19.0263 13.8725C19.747 14.601 20.727 15.0144 21.7517 15.0221ZM11.8705 17.3729L8.47338 13.9629C6.61139 12.0755 5.44551 9.61164 5.16671 6.97501L13.7046 15.5L11.8705 17.3729ZM19.9305 18.1092C19.6872 17.8642 19.3567 17.726 19.0115 17.7247C18.6663 17.7235 18.3348 17.8595 18.0898 18.1027C17.8449 18.3459 17.7066 18.6765 17.7054 19.0217C17.7042 19.3669 17.8402 19.6984 18.0834 19.9433L26.2209 28.0808C26.4676 28.3053 26.7916 28.4257 27.125 28.4167C27.295 28.4177 27.4636 28.3851 27.6209 28.3208C27.7783 28.2565 27.9214 28.1618 28.0421 28.0421C28.1632 27.922 28.2593 27.7792 28.3249 27.6218C28.3904 27.4644 28.4242 27.2955 28.4242 27.125C28.4242 26.9545 28.3904 26.7857 28.3249 26.6283C28.2593 26.4709 28.1632 26.328 28.0421 26.2079L19.9305 18.1092Z" fill="#1E1E1E"/>
</svg>
