<svg width="31" height="31" viewBox="0 0 31 31" fill="none" xmlns="http://www.w3.org/2000/svg">
<path d="M25.1877 16.2388L15.5002 25.8333L5.81268 16.2388C5.17371 15.617 4.67039 14.8696 4.33443 14.0437C3.99848 13.2179 3.83716 12.3314 3.86064 11.4401C3.88412 10.5489 4.09188 9.6721 4.47085 8.86507C4.84981 8.05803 5.39178 7.33821 6.06261 6.75092C6.73343 6.16363 7.5186 5.7216 8.36865 5.45267C9.2187 5.18373 10.1152 5.09372 11.0018 5.18829C11.8883 5.28286 12.7457 5.55998 13.5199 6.00218C14.2941 6.44438 14.9683 7.04209 15.5002 7.75767C16.0343 7.04729 16.7094 6.4548 17.483 6.01729C18.2567 5.57978 19.1123 5.30667 19.9964 5.21505C20.8805 5.12344 21.7739 5.21528 22.6208 5.48485C23.4678 5.75441 24.25 6.19588 24.9184 6.78164C25.5869 7.3674 26.1273 8.08483 26.5057 8.88903C26.8842 9.69324 27.0926 10.5669 27.1178 11.4553C27.1431 12.3438 26.9847 13.2279 26.6526 14.0523C26.3205 14.8767 25.8218 15.6237 25.1877 16.2465" stroke="#1E1E1E" stroke-width="2.5" stroke-linecap="round" stroke-linejoin="round"/>
</svg>
