<svg width="26" height="31" viewBox="0 0 26 31" fill="none" xmlns="http://www.w3.org/2000/svg">
<path d="M21.2877 4.8522L21.2878 4.85225C23.4516 7.11899 24.6985 10.19 24.7484 13.4188C24.7984 16.6444 23.6494 19.7542 21.5598 22.0937L21.2805 22.3964L15.1594 28.808C15.1593 28.808 15.1593 28.8081 15.1592 28.8081C14.6011 29.3924 13.8636 29.7219 13.0998 29.7483C12.3425 29.7744 11.5941 29.5014 11.0051 28.9677L10.8278 28.7936L4.71176 22.3873C4.71173 22.3873 4.71169 22.3873 4.71166 22.3872C2.50136 20.0714 1.25 16.9187 1.25 13.6198C1.25 10.3208 2.5014 7.16799 4.71176 4.8522C6.92024 2.53839 9.90281 1.25 12.9997 1.25C16.0967 1.25 19.0792 2.53839 21.2877 4.8522ZM12.9997 7.82987C12.2582 7.82987 11.5255 7.98297 10.8439 8.27877C10.1624 8.57451 9.54709 9.0063 9.03146 9.54651C8.51596 10.0866 8.10995 10.7247 7.83392 11.4228C7.55792 12.1209 7.41652 12.8673 7.41652 13.6198C7.41652 14.3722 7.55792 15.1186 7.83392 15.8167C8.10995 16.5149 8.51596 17.1529 9.03146 17.693C9.54709 18.2332 10.1624 18.665 10.8439 18.9608C11.5255 19.2566 12.2582 19.4097 12.9997 19.4097C14.4998 19.4097 15.9259 18.7848 16.968 17.693C18.0082 16.6032 18.583 15.137 18.583 13.6198C18.583 12.1025 18.0082 10.6363 16.968 9.54651L16.0638 10.4096L16.968 9.54651C15.9259 8.45473 14.4998 7.82987 12.9997 7.82987Z" stroke="black" stroke-width="2.5"/>
</svg>
